<?xml version="1.0" encoding="utf-8"?>
<!-- Generator: Adobe Illustrator 25.2.0, SVG Export Plug-In . SVG Version: 6.00 Build 0)  -->
<svg version="1.1" id="Layer_2" xmlns="http://www.w3.org/2000/svg" xmlns:xlink="http://www.w3.org/1999/xlink" x="0px" y="0px"
	 viewBox="0 0 500 110.6" style="enable-background:new 0 0 500 110.6;" xml:space="preserve">
<style type="text/css">
	.st0{fill:#3DB44B;}
	.st1{fill-rule:evenodd;clip-rule:evenodd;fill:#3DB44B;}
	.st2{fill-rule:evenodd;clip-rule:evenodd;fill:#231F20;}
</style>
<g>
	<g>
		<g>
			<path d="M30.7,99c-6.7,0-12.1-1.9-16-5.7c-3.9-3.8-5.9-9.1-5.9-16h8.9c1.1,0,2.1,0.9,2.3,2c0,0,0.6,4.3,2.3,6.6
				c1.7,2.3,4.4,3.4,8.3,3.4c3.8,0,6.4-1.1,8-3.2c1.6-2.2,2.4-4.9,2.4-8.3V27.7c0-1.1,0.9-2,2-2h6.9c1.1,0,2,0.9,2,2v48.1
				c0,1.1,0,2.9-0.1,4c0,0-0.2,2.9-0.7,5c-0.9,3.5-2.5,6.4-4.9,8.7C42.3,97.2,37.2,99,30.7,99z"/>
		</g>
	</g>
	<g>
		<g>
			<path d="M89.3,98.9c-4.3,0-7.9-0.7-10.7-2.2c-2.8-1.4-4.9-3.3-6.3-5.7c-1.4-2.4-2.1-5-2.1-7.8c0-4.9,1.9-8.9,5.8-11.7
				c3.8-2.9,9.3-4.3,16.5-4.3h11.4c1.1,0,2-0.2,2-0.5s-0.1-1.4-0.3-2.4c0,0-0.8-5-2.9-7c-2.2-2-5-3-8.4-3c-3,0-5.6,0.7-7.9,2.2
				c-2.2,1.5-3.6,3.7-4.1,6.5h-8.9c-1.1,0-1.8-0.9-1.5-1.9c0,0,1.1-4.9,3.3-7.6c2.2-2.6,4.9-4.7,8.2-6.1c3.3-1.4,7-2.1,11-2.1
				c7.1,0,12.7,1.9,16.6,5.6c3.9,3.7,5.9,8.8,5.9,15.3v29.4c0,1.1-0.9,2-2,2h-5.5c-1.1,0-2.1-0.9-2.2-2l-0.5-4.8
				c-0.1-1.1-0.7-1.2-1.3-0.3c0,0-2.4,3.5-5.2,5.4C97.4,98,93.8,98.9,89.3,98.9z M91.5,90.1c2.9,0,5.4-0.7,7.5-2.1
				c2-1.4,3.6-3.3,4.7-5.6c1.1-2.3,1.8-4.9,2.1-7.7H95.6c-1.1,0-2.9,0.1-4,0.2c0,0-5.4,0.6-7.2,2.1c-1.8,1.5-2.7,3.4-2.7,5.7
				c0,2.3,0.9,4.2,2.6,5.5C86.1,89.4,88.5,90.1,91.5,90.1z"/>
		</g>
	</g>
	<g>
		<path d="M140.2,97.2c-1.1,0-2-0.9-2-2V46.8c0-1.1,0.9-2,2-2h6.9c1.1,0,2,0.9,2,2v48.4c0,1.1-0.9,2-2,2H140.2z"/>
	</g>
	<g>
		<g>
			<path class="st0" d="M205.5,97.7c-1.1,0-2-0.9-2-2v-68c0-1.1,0.9-2,2-2h6.9c1.1,0,2,0.9,2,2v26.9c0,1.1,0.6,1.3,1.4,0.5
				l25.7-27.9c0.7-0.8,2.3-1.5,3.4-1.5h9.5c1.1,0,1.4,0.7,0.6,1.5L231,52.9c-0.7,0.8-0.9,2.2-0.3,3.2L255.8,96
				c0.6,0.9,0.2,1.7-0.9,1.7h-9.3c-1.1,0-2.5-0.8-3.1-1.7l-19.7-31.6c-0.6-0.9-1.7-1-2.4-0.2l-4.7,5.1c-0.7,0.8-1.4,2.4-1.4,3.5v23
				c0,1.1-0.9,2-2,2H205.5z"/>
		</g>
	</g>
	<g>
		<path class="st0" d="M281.1,97.7c-1.1,0-2-0.9-2-2V47.2c0-1.1,0.9-2,2-2h6.9c1.1,0,2,0.9,2,2v48.4c0,1.1-0.9,2-2,2H281.1z"/>
	</g>
	<g>
		<g>
			<path class="st0" d="M332.2,97.1c-6.3,0-11.4-1.5-15.5-4.6c-4.1-3.1-6.4-7.1-7-12.2h8.7c1.1,0,2.4,0.8,2.8,1.8c0,0,1,2.4,3,4
				c2,1.6,4.6,2.4,7.9,2.4c3.2,0,5.5-0.7,7-2c1.5-1.3,2.2-2.9,2.2-4.6c0-2.5-1-4.2-3-5.1c-2-0.9-4.8-1.7-8.4-2.4
				c-2.8-0.6-5.6-1.4-8.3-2.4c-2.8-1-5.1-2.4-6.9-4.2c-1.8-1.8-2.7-4.3-2.7-7.4c0-4.3,1.7-7.9,5-10.8c3.3-2.9,8-4.3,14-4.3
				c5.5,0,10,1.3,13.4,4c3.4,2.7,5.4,6.4,6.1,11.3h-8.2c-1.1,0-2.3-0.9-2.7-1.9c0,0-0.7-1.9-2.3-3.1c-1.6-1.2-3.8-1.8-6.5-1.8
				c-2.7,0-4.7,0.5-6.2,1.6c-1.5,1.1-2.2,2.5-2.2,4.3c0,1.7,1,3.1,3.1,4.1c2,1,4.7,1.9,8,2.7c3.3,0.7,6.4,1.6,9.2,2.5
				c2.8,1,5.1,2.4,6.8,4.2c1.7,1.9,2.6,4.6,2.6,8.2c0.1,4.5-1.7,8.3-5.2,11.3C343.2,95.6,338.3,97.1,332.2,97.1z"/>
		</g>
	</g>
	<g>
		<g>
			<path class="st0" d="M390.5,98.8c-4.3,0-7.9-0.7-10.7-2.2c-2.8-1.4-4.9-3.3-6.3-5.7c-1.4-2.4-2.1-5-2.1-7.8
				c0-4.9,1.9-8.9,5.8-11.7c3.8-2.9,9.3-4.3,16.5-4.3h11.4c1.1,0,2-0.2,2-0.5c0-0.3-0.1-1.4-0.3-2.4c0,0-0.8-5-2.9-7
				c-2.2-2-5-3-8.4-3c-3,0-5.6,0.7-7.9,2.2c-2.2,1.5-3.6,3.7-4.1,6.5h-8.9c-1.1,0-1.8-0.9-1.5-1.9c0,0,1.1-4.9,3.3-7.6
				c2.2-2.6,4.9-4.7,8.2-6.1c3.3-1.4,7-2.1,11-2.1c7.1,0,12.7,1.9,16.6,5.6c3.9,3.7,5.9,8.8,5.9,15.3v29.4c0,1.1-0.9,2-2,2h-5.5
				c-1.1,0-2.1-0.9-2.2-2l-0.5-4.8c-0.1-1.1-0.7-1.2-1.3-0.3c0,0-2.4,3.5-5.2,5.4C398.6,97.8,395,98.8,390.5,98.8z M392.7,89.9
				c2.9,0,5.4-0.7,7.5-2.1c2-1.4,3.6-3.3,4.7-5.6c1.1-2.3,1.8-4.9,2.1-7.7h-10.1c-1.1,0-2.9,0.1-4,0.2c0,0-5.4,0.6-7.2,2.1
				c-1.8,1.5-2.7,3.4-2.7,5.7c0,2.3,0.9,4.2,2.6,5.5C387.3,89.3,389.6,89.9,392.7,89.9z"/>
		</g>
	</g>
	<g>
		<g>
			<path class="st0" d="M437.8,46.8h7.7c1.1,0,2.1,0.9,2.2,2l0.5,5c0.1,1.1,0.7,1.3,1.3,0.3c0,0,2.8-4,5.8-5.8
				c3.1-1.8,6.6-2.7,10.5-2.7c6.2,0,11,1.9,14.6,5.8c3.5,3.8,5.3,9.6,5.3,17.2v27.3c0,1.1-0.9,2-2,2h-6.8c-1.1,0-2-0.9-2-2V71.6
				c0-1.1-0.1-2.9-0.2-4c0,0-0.3-4.3-1.3-6.6c-1.8-4.2-5.4-6.2-10.6-6.2c-4,0-7.4,1.4-10,4.3c-2.6,2.9-4,7-4,12.3v24.3
				c0,1.1-0.9,2-2,2h-6.9c-1.1,0-2-0.9-2-2V46.8"/>
		</g>
	</g>
	<path class="st1" d="M153.1,15.3c7.5,4.4,9.2,7.8,6.4,14.8c-0.9-1.7-1.5-3-2.2-4.2c-0.4,0.3-0.7,0.5-1.1,0.8c1.9,2.4,4.2,4.6,3.2,8
		c-0.9,2.9-1.3,6.1-4.6,7.1c-0.9-3.3-1.3-6.8-2.9-9.6c-1.5-2.8-4.2-4.9-6.5-7.6c0.2-0.2,0.9-0.8,1.8-1.6
		c-7.9,1.3-13.5,8.9-13.9,18.7c-3.2-1-5.1-3.3-5.6-6.3c-1-5.6-3.4-11.7,4.4-15.2c-0.3-0.2-0.6-0.4-0.9-0.6c-1,0.7-2.1,1.5-3.1,2.2
		c0.1-4.7,5.6-10.7,11.1-12.3c6.9-2,13.6,0.4,17.3,6.4C155.3,15.8,154.2,15.5,153.1,15.3z"/>
	<path class="st2" d="M294,15.8c7.5,4.4,9.2,7.8,6.4,14.8c-0.9-1.7-1.5-3-2.2-4.2c-0.4,0.3-0.7,0.5-1.1,0.8c1.9,2.4,4.2,4.6,3.2,8
		c-0.9,2.9-1.3,6.1-4.6,7.1c-0.9-3.3-1.3-6.8-2.9-9.6c-1.5-2.8-4.2-4.9-6.5-7.6c0.2-0.2,0.9-0.8,1.8-1.6
		c-7.9,1.3-13.5,8.9-13.9,18.7c-3.2-1-5.1-3.3-5.6-6.3c-1-5.6-3.4-11.7,4.4-15.2c-0.3-0.2-0.6-0.4-0.9-0.6c-1,0.7-2.1,1.5-3.1,2.2
		c0.1-4.7,5.6-10.7,11.1-12.3c6.9-2,13.6,0.4,17.3,6.4C296.1,16.3,295,16,294,15.8z"/>
</g>
</svg>
